<svg xmlns="http://www.w3.org/2000/svg" width="96" height="96" viewBox="0 0 96 96" fill="none">
  <defs>
    <linearGradient id="g" x1="16" y1="12" x2="80" y2="84" gradientUnits="userSpaceOnUse">
      <stop stop-color="#0A5F2D"/>
      <stop offset="1" stop-color="#0D7A3A"/>
    </linearGradient>
  </defs>
  <rect x="10" y="10" width="76" height="76" rx="20" fill="url(#g)"/>
  <path d="M48 20c10.6 0 19.7 6.1 24.1 15.0.8 1.6.1 3.5-1.5 4.3-1.6.8-3.5.1-4.3-1.5C62.9 31.5 55.9 27 48 27c-11.6 0-21 9.4-21 21 0 9.4 6.2 17.3 14.8 20.0 1.7.5 2.7 2.3 2.2 4.0-.5 1.7-2.3 2.7-4.0 2.2C28.6 70.7 20 60.3 20 48 20 32.5 32.5 20 48 20z" fill="#FFC947"/>
  <path d="M48 33c8.3 0 15 6.7 15 15 0 6.4-4.0 11.8-9.7 14.0-1.7.6-3.5-.2-4.1-1.9-.6-1.7.2-3.5 1.9-4.1 3.2-1.1 5.5-4.1 5.5-7.9 0-4.7-3.8-8.5-8.5-8.5-3.8 0-7 2.5-8.1 6.0-.5 1.7-2.3 2.7-4.0 2.2-1.7-.5-2.7-2.3-2.2-4.0C36.0 37.0 41.6 33 48 33z" fill="#FFFFFF" opacity="0.95"/>
  <path d="M46.0 54.5c0-1.1.9-2.0 2.0-2.0h.0c1.1 0 2.0.9 2.0 2.0v6.0c0 1.1-.9 2.0-2.0 2.0h-.0c-1.1 0-2.0-.9-2.0-2.0v-6.0z" fill="#FFFFFF"/>
  <path d="M48 44.2c1.5 0 2.7 1.2 2.7 2.7 0 1.5-1.2 2.7-2.7 2.7-1.5 0-2.7-1.2-2.7-2.7 0-1.5 1.2-2.7 2.7-2.7z" fill="#FFFFFF"/>
</svg>

